<svg width="59" height="67" viewBox="0 0 59 67" fill="none" xmlns="http://www.w3.org/2000/svg">
<path d="M45.253 0H5.90256C2.64776 0 0 2.64153 0 5.88867V53.2599C0 55.8156 1.64983 57.974 3.93504 58.787V19.2915C3.93504 16.6712 4.9592 14.2061 6.8172 12.3525L12.3816 6.80115C14.2396 4.94753 16.7106 3.92578 19.3371 3.92578H50.7931C49.9782 1.64595 47.8147 0 45.253 0Z" fill="#003B4F"/>
<path d="M53.1231 7.87793C35.7394 7.87793 40.7986 7.87793 23.6103 7.87793V21.592C23.6103 22.6768 22.7302 23.5811 21.6428 23.5811H7.87012V61.1116C7.87012 64.3596 10.5171 67.0003 13.7727 67.0003H53.1231C56.3774 67.0003 58.9995 64.3596 58.9995 61.1116V13.7404C58.9995 10.4938 56.3774 7.87793 53.1231 7.87793ZM49.1881 55.223H17.7077C16.6203 55.223 15.7402 54.3449 15.7402 53.2601C15.7402 52.1753 16.6203 51.2972 17.7077 51.2972H49.1881C50.2755 51.2972 51.1556 52.1753 51.1556 53.2601C51.1556 54.3449 50.2755 55.223 49.1881 55.223ZM49.1881 47.3714H17.7077C16.6203 47.3714 15.7402 46.4933 15.7402 45.4085C15.7402 44.3237 16.6203 43.4456 17.7077 43.4456H49.1881C50.2755 43.4456 51.1556 44.3237 51.1556 45.4085C51.1556 46.4933 50.2755 47.3714 49.1881 47.3714ZM49.1881 39.5198H17.7077C16.6203 39.5198 15.7402 38.6418 15.7402 37.557C15.7402 36.4721 16.6203 35.5941 17.7077 35.5941H49.1881C50.2755 35.5941 51.1556 36.4721 51.1556 37.557C51.1556 38.6418 50.2755 39.5198 49.1881 39.5198ZM49.1881 31.6683H17.7077C16.6203 31.6683 15.7402 30.7902 15.7402 29.7054C15.7402 28.6206 16.6203 27.7425 17.7077 27.7425H49.1881C50.2755 27.7425 51.1556 28.6206 51.1556 29.7054C51.1556 30.7902 50.2755 31.6683 49.1881 31.6683Z" fill="#003B4F"/>
<path d="M19.3371 7.85156C17.7615 7.85156 16.2783 8.46503 15.1639 9.57681L9.59944 15.1281C8.28763 16.4367 7.87012 17.9 7.87012 19.6289H19.6753V7.85156H19.3371Z" fill="#003B4F"/>
</svg>
